<svg width="49" height="48" viewBox="0 0 49 48" fill="none" xmlns="http://www.w3.org/2000/svg">
<rect x="0.5" width="48" height="48" rx="24" fill="#4849B8"/>
<path d="M10.5761 19.3796C10.0943 20.8323 9.8335 22.3857 9.8335 24C9.8335 29.5392 12.9042 34.3611 17.4361 36.8565L22.7449 24.6889L10.5761 19.3796Z" fill="white"/>
<path d="M11.6436 16.936L23.1668 21.9636V9.39313C18.1938 9.84127 13.9365 12.7717 11.6436 16.936Z" fill="white"/>
<path d="M24.5002 38.6667C22.8858 38.6667 21.3324 38.4059 19.8798 37.9241L25.7109 24.5593C25.7518 24.4708 25.7833 24.3771 25.8042 24.2794C25.8263 24.1765 25.8359 24.0728 25.8335 23.9702V9.39313C33.3088 10.0668 39.1668 16.3493 39.1668 24C39.1668 32.1002 32.6003 38.6667 24.5002 38.6667Z" fill="white"/>
</svg>
